<svg xmlns="http://www.w3.org/2000/svg" width="874.937" height="701.482" viewBox="0 0 874.937 701.482">
  <g id="_404-img" data-name="404-img" transform="translate(-221.532 -755.367)">
    <g id="Group_3645" data-name="Group 3645" transform="translate(221.531 755.367)">
      <rect id="Rectangle_549" data-name="Rectangle 549" width="17.489" height="20.404" rx="1" transform="translate(450.948 103.932) rotate(-10.894)" fill="#d9eee1"/>
      <rect id="Rectangle_550" data-name="Rectangle 550" width="17.489" height="20.404" rx="1" transform="translate(725.732 539.952) rotate(29.077)" fill="#d9eee1"/>
      <rect id="Rectangle_551" data-name="Rectangle 551" width="17.489" height="20.404" rx="1" transform="translate(234.876 675.15) rotate(29.077)" fill="#d9eee1"/>
      <rect id="Rectangle_552" data-name="Rectangle 552" width="8.069" height="9.414" rx="1" transform="translate(334.433 161.249)" fill="#d9eee1"/>
      <rect id="Rectangle_553" data-name="Rectangle 553" width="14.861" height="17.338" rx="1" transform="translate(713.667 94.638) rotate(27)" fill="#d9eee1"/>
      <rect id="Rectangle_554" data-name="Rectangle 554" width="8.069" height="9.414" rx="1" transform="translate(690.689 170.773)" fill="#d9eee1"/>
      <rect id="Rectangle_555" data-name="Rectangle 555" width="8.069" height="9.414" rx="1" transform="translate(666.88 524.44)" fill="#d9eee1"/>
      <rect id="Rectangle_556" data-name="Rectangle 556" width="8.069" height="9.414" rx="1" transform="translate(731.496 388.414)" fill="#d9eee1"/>
      <rect id="Rectangle_557" data-name="Rectangle 557" width="8.069" height="9.414" rx="1" transform="translate(823.315 265.993)" fill="#d9eee1"/>
      <rect id="Rectangle_558" data-name="Rectangle 558" width="8.069" height="9.414" rx="1" transform="translate(748.498 483.633)" fill="#d9eee1"/>
      <rect id="Rectangle_559" data-name="Rectangle 559" width="8.069" height="9.414" rx="1" transform="translate(582.332 663.263)" fill="#d9eee1"/>
      <rect id="Rectangle_560" data-name="Rectangle 560" width="11.522" height="13.443" rx="1" transform="translate(241.382 127.31) rotate(-22.65)" fill="#d9eee1"/>
      <rect id="Rectangle_561" data-name="Rectangle 561" width="11.522" height="13.443" rx="1" transform="translate(22.522 607.592) rotate(17.347)" fill="#d9eee1"/>
      <rect id="Rectangle_562" data-name="Rectangle 562" width="4.364" height="5.091" rx="0.636" transform="translate(205.913 208.177) rotate(17.347)" fill="#d9eee1"/>
      <rect id="Rectangle_563" data-name="Rectangle 563" width="4.364" height="5.091" rx="0.636" transform="translate(651.396 235.38) rotate(17.347)" fill="#d9eee1"/>
      <rect id="Rectangle_564" data-name="Rectangle 564" width="4.364" height="5.091" rx="0.636" transform="translate(831.626 313.595) rotate(17.347)" fill="#d9eee1"/>
      <rect id="Rectangle_565" data-name="Rectangle 565" width="4.364" height="5.091" rx="0.636" transform="translate(242.012 525.686) rotate(17.347)" fill="#d9eee1"/>
      <rect id="Rectangle_566" data-name="Rectangle 566" width="4.364" height="5.091" rx="0.636" transform="translate(83.486 48.347) rotate(17.347)" fill="#d9eee1"/>
      <rect id="Rectangle_567" data-name="Rectangle 567" width="8.286" height="9.667" rx="1" transform="translate(115.453 377.243) rotate(17.347)" fill="#d9eee1"/>
      <rect id="Rectangle_568" data-name="Rectangle 568" width="8.286" height="9.667" rx="1" transform="translate(126.146 500.234) rotate(17.347)" fill="#d9eee1"/>
      <rect id="Rectangle_569" data-name="Rectangle 569" width="8.286" height="9.667" rx="1" transform="translate(370.472 618.832) rotate(17.347)" fill="#d9eee1"/>
      <rect id="Rectangle_570" data-name="Rectangle 570" width="11.522" height="13.443" rx="1" transform="translate(511.053 44.946) rotate(17.347)" fill="#d9eee1"/>
      <rect id="Rectangle_571" data-name="Rectangle 571" width="14.844" height="17.318" rx="1" transform="translate(158.538 160.567) rotate(17.347)" fill="#d9eee1"/>
      <rect id="Rectangle_572" data-name="Rectangle 572" width="14.844" height="17.318" rx="1" transform="translate(430.194 15.629) rotate(-92.65)" fill="#d9eee1"/>
      <rect id="Rectangle_573" data-name="Rectangle 573" width="22.89" height="26.705" rx="1" transform="translate(35.056 305.383) rotate(135.279)" fill="#d9eee1"/>
      <rect id="Rectangle_574" data-name="Rectangle 574" width="22.89" height="26.705" rx="1" transform="translate(847.107 637.708) rotate(-11.715)" fill="#d9eee1"/>
    </g>
    <g id="_404" data-name="404" transform="translate(472 1011)">
      <path id="Path_31858" data-name="Path 31858" d="M67.129,187.923H63.1c0,2.962,1.8,5.364,4.028,5.364Zm0-26.819h4.028c0-2.962-1.8-5.364-4.028-5.364Zm-73.1,0H-10c0,2.962,1.8,5.364,4.028,5.364Zm0-40.765-3.409-2.857A6.735,6.735,0,0,0-10,120.34ZM51.824-1.954V-7.318a3.93,3.93,0,0,0-3.409,2.507Zm60.414,0,3.827-1.671c-.542-2.2-2.086-3.693-3.827-3.693Zm4.028,16.359,3.949,1.052a7.076,7.076,0,0,0-.122-2.723Zm-4.028,26.819-3.949-1.052a7.1,7.1,0,0,0-.078,1.052Zm0,71.07H108.21c0,2.962,1.8,5.364,4.028,5.364Zm26.179,0h4.028c0-2.962-1.8-5.364-4.028-5.364Zm0,46.128.309,5.348c2.1-.215,3.719-2.546,3.719-5.348ZM112.238,161.1l-.309-5.348c-2.1.215-3.719,2.546-3.719,5.348Zm0,26.819v5.364c2.224,0,4.028-2.4,4.028-5.364ZM45.38,112.294l-3.667-2.22a6.931,6.931,0,0,0,.28,5.123,3.915,3.915,0,0,0,3.386,2.46Zm21.749,0v5.364c2.224,0,4.028-2.4,4.028-5.364Zm0-53.1h4.028c0-2.962-1.8-5.364-4.028-5.364Zm-3.625,0V53.829c-1.579,0-3.013,1.229-3.667,3.144Zm7.652,128.73V161.1H63.1v26.819ZM67.129,155.74h-73.1v10.728h73.1ZM-1.945,161.1V120.34H-10V161.1ZM-2.564,123.2,55.232.9,48.415-4.811l-57.8,122.294ZM51.824,3.409h60.414V-7.318H51.824ZM108.411-.283l4.028,16.359,7.654-3.342-4.028-16.36Zm3.905,13.636-4.028,26.819,7.9,2.1,4.028-26.819ZM108.21,41.224v71.07h8.055V41.224Zm4.028,76.434h26.179V106.93H112.238Zm22.152-5.364v46.128h8.055V112.294Zm3.719,40.78-26.179,2.682.618,10.7,26.179-2.682Zm-29.9,8.03v26.819h8.055V161.1Zm4.028,21.455H67.129v10.728h45.109Zm-66.858-64.9H67.129V106.93H45.38Zm25.777-5.364v-53.1H63.1v53.1ZM67.129,53.829H63.5V64.556h3.625Zm-7.292,3.144-18.124,53.1,7.333,4.439,18.124-53.1ZM186.609,185.509l-1.354,5.051.06.028Zm-19.937-16.628-2.881,3.748.067.09Zm-13.291-30.037-3.81,1.739c0,.007,0,.015.006.023Zm0-91.184,3.8,1.762.006-.023Zm13.291-30.305-2.848-3.793-.033.045ZM186.609.728,187.9,5.807l.061-.028Zm55.178,4.291-1.863,4.755.021.015Zm22.353,31.11-3.584,2.446.028.072Zm0,113.98-3.566-2.493-.018.047Zm-22.353,31.11L243.609,186l.02-.013Zm-18.728-56.856,3.557,2.517h0Zm0-62.488-3.58,2.457.023.06Zm-24.77,0L194.8,59.2l-.046.108Zm0,62.488-3.536,2.569c.024.057.048.114.073.169Zm12.486,60.879A54.872,54.872,0,0,1,187.9,180.43l-2.588,10.159a61.131,61.131,0,0,0,25.46,5.38Zm-22.811-4.783a50.928,50.928,0,0,1-18.477-15.414l-5.629,7.674a59.063,59.063,0,0,0,21.4,17.842Zm-18.41-15.324c-5.146-7.016-9.3-16.3-12.368-28.051l-7.608,3.524c3.376,12.923,8.083,23.663,14.214,32.023Zm-12.362-28.029c-3.036-11.793-4.616-26.454-4.616-44.121H144.52c0,18.449,1.643,34.362,5.051,47.6Zm-4.616-44.121c0-17.485,1.579-31.958,4.61-43.562L149.577,45.9c-3.413,13.069-5.057,28.813-5.057,47.086ZM157.191,49.4c3.072-11.933,7.226-21.294,12.362-28.3l-5.762-7.5c-6.142,8.373-10.848,19.215-14.22,32.314ZM169.52,21.148c5.349-7.123,11.467-12.216,18.383-15.341L185.315-4.352q-12.18,5.5-21.491,17.914ZM187.964,5.779A52.41,52.41,0,0,1,210.774.728V-10a58.684,58.684,0,0,0-25.52,5.676ZM210.774.728a49.867,49.867,0,0,1,29.15,9.046L243.65.263A56.351,56.351,0,0,0,210.774-10Zm29.171,9.061c8.545,5.853,15.434,15.334,20.611,28.786l7.169-4.893c-5.832-15.154-13.846-26.413-24.1-33.433Zm20.639,28.858c5.215,13.063,7.986,31.043,7.986,54.338h8.055c0-24.263-2.867-44.188-8.929-59.374Zm7.986,54.338c0,23.29-2.77,41.374-8,54.631l7.132,4.986c6.052-15.35,8.92-35.349,8.92-59.617Zm-8.015,54.678c-5.177,13.453-12.066,22.933-20.611,28.786l3.684,9.54c10.25-7.02,18.264-18.279,24.1-33.433Zm-20.591,28.773a50.942,50.942,0,0,1-29.191,8.806v10.728A57.4,57.4,0,0,0,243.609,186Zm-29.191-38.127c7.016,0,12.7-3.549,15.841-11.429l-7.114-5.033c-1.421,3.562-3.929,5.735-8.727,5.735Zm15.841-11.429c2.8-7.015,3.894-18.7,3.894-33.895h-8.055c0,15.2-1.186,24.434-2.953,28.861Zm3.894-33.895c0-15.026-1.1-26.616-3.894-33.627L219.5,64.391c1.768,4.432,2.953,13.582,2.953,28.593Zm-3.871-33.566a19.185,19.185,0,0,0-6.447-8.9,15.715,15.715,0,0,0-9.418-2.859V58.388a8.4,8.4,0,0,1,8.7,5.943ZM210.774,47.661c-6.989,0-12.6,3.732-15.976,11.537l6.981,5.353c1.727-3.994,4.438-6.163,8.995-6.163ZM194.753,59.306c-2.945,7.191-4.117,18.779-4.117,33.679h8.055c0-14.78,1.245-23.932,3.133-28.542Zm-4.117,33.679c0,15.065,1.169,26.75,4.117,33.947l7.072-5.137c-1.886-4.6-3.133-13.837-3.133-28.809Zm4.19,34.116c3.4,7.629,9.017,11.208,15.949,11.208V127.581c-4.614,0-7.322-2.143-9.022-5.956Zm161,60.822H351.8c0,2.962,1.8,5.364,4.028,5.364Zm0-26.819h4.028c0-2.962-1.8-5.364-4.028-5.364Zm-73.1,0H278.7c0,2.962,1.8,5.364,4.028,5.364Zm0-40.765-3.409-2.857a6.735,6.735,0,0,0-.619,2.857Zm57.8-122.294V-7.318a3.93,3.93,0,0,0-3.409,2.507Zm60.415,0,3.826-1.671c-.544-2.2-2.086-3.693-3.826-3.693Zm4.028,16.359,3.947,1.052a7.037,7.037,0,0,0-.121-2.723Zm-4.028,26.819-3.951-1.052a7.046,7.046,0,0,0-.077,1.052Zm0,71.07H396.91c0,2.962,1.8,5.364,4.028,5.364Zm26.18,0h4.028c0-2.962-1.8-5.364-4.028-5.364Zm0,46.128.306,5.348c2.1-.215,3.722-2.546,3.722-5.348Zm-26.18,2.682-.31-5.348c-2.1.215-3.717,2.546-3.717,5.348Zm0,26.819v5.364c2.223,0,4.028-2.4,4.028-5.364Zm-66.86-75.629-3.667-2.22a6.929,6.929,0,0,0,.28,5.123,3.915,3.915,0,0,0,3.386,2.46Zm21.749,0v5.364c2.224,0,4.028-2.4,4.028-5.364Zm0-53.1h4.028c0-2.962-1.8-5.364-4.028-5.364Zm-3.625,0V53.829c-1.58,0-3.013,1.229-3.667,3.144Zm7.652,128.73V161.1H351.8v26.819Zm-4.028-32.183h-73.1v10.728h73.1ZM286.753,161.1V120.34H278.7V161.1Zm-.619-37.907L343.931.9l-6.817-5.714-57.8,122.294ZM340.522,3.409h60.415V-7.318H340.522ZM397.107-.283l4.028,16.359,7.657-3.342-4.028-16.36Zm3.907,13.636-4.028,26.819,7.9,2.1,4.028-26.819Zm-4.1,27.871v71.07h8.055V41.224Zm4.028,76.434h26.18V106.93h-26.18Zm22.152-5.364v46.128h8.055V112.294Zm3.717,40.78-26.179,2.682.616,10.7,26.18-2.682Zm-29.9,8.03v26.819h8.055V161.1Zm4.028,21.455H355.827v10.728h45.111Zm-66.86-64.9h21.749V106.93H334.078Zm25.777-5.364v-53.1H351.8v53.1Zm-4.028-58.465H352.2V64.556h3.625Zm-7.292,3.144-18.124,53.1,7.333,4.439,18.124-53.1Z" fill="#00963f"/>
    </g>
  </g>
</svg>
