<svg id="add_to_cart" data-name="add to cart" xmlns="http://www.w3.org/2000/svg" width="12.217" height="15.264" viewBox="0 0 12.217 15.264">
  <g id="cart">
    <g id="Group_42050" data-name="Group 42050">
      <path id="Path_11327" data-name="Path 11327" d="M61.014,13.194,60.14,3.352a.421.421,0,0,0-.418-.384h-1.8a3.016,3.016,0,0,0-6.031,0H50.1a.418.418,0,0,0-.418.384L48.8,13.194c0,.012,0,.025,0,.037a2.175,2.175,0,0,0,2.291,2.032h7.635a2.175,2.175,0,0,0,2.291-2.032A.152.152,0,0,0,61.014,13.194ZM54.909.843a2.175,2.175,0,0,1,2.172,2.126H52.736A2.175,2.175,0,0,1,54.909.843Zm3.817,13.578H51.091a1.345,1.345,0,0,1-1.448-1.171l.837-9.436H51.89v1.28a.421.421,0,1,0,.843,0V3.814h4.348v1.28a.421.421,0,1,0,.843,0V3.814h1.411l.84,9.436A1.347,1.347,0,0,1,58.726,14.421Z" transform="translate(-48.8 0)" fill="#00963f"/>
    </g>
  </g>
  <path id="Icon_ionic-ios-add" data-name="Icon ionic-ios-add" d="M12.408,10.572H11.029V9.193a.229.229,0,0,0-.457,0v1.379H9.193a.229.229,0,0,0,0,.457h1.379v1.379a.229.229,0,1,0,.457,0V11.029h1.379a.229.229,0,0,0,0-.457Z" transform="translate(-4.692 -1.333)" fill="#00963f" stroke="#00963f" stroke-width="0.5"/>
</svg>
