<svg id="all" xmlns="http://www.w3.org/2000/svg" width="41.799" height="41.799" viewBox="0 0 41.799 41.799">
  <g id="Group_42467" data-name="Group 42467">
    <path id="Path_11500" data-name="Path 11500" d="M39.394,25.972a31.408,31.408,0,0,1,5.506-.488,9.393,9.393,0,0,1,1.8.174,21.914,21.914,0,0,0,.24-3.208,13.174,13.174,0,0,0-2.28-8,7.272,7.272,0,0,0-5.883-3.017A7.086,7.086,0,0,0,34.695,12.7V9.388a3.678,3.678,0,0,1,3.674-3.674,1.225,1.225,0,0,0,0-2.449A6.1,6.1,0,0,0,34,5.1a7.536,7.536,0,0,0-1.694-2.715C29.722-.2,25.494,0,25.316.007a1.225,1.225,0,0,0-1.155,1.155c-.01.179-.212,4.406,2.377,6.995A9.24,9.24,0,0,0,32.246,10.5v2.2a7.086,7.086,0,0,0-4.082-1.275,7.272,7.272,0,0,0-5.883,3.017,13.174,13.174,0,0,0-2.28,8,22.5,22.5,0,0,0,1.083,6.791Z" transform="translate(-18.367 0)" fill="#fff"/>
    <path id="Path_11501" data-name="Path 11501" d="M26.533,342.159c-.952,0-1.907.049-2.857.144v3.938a1.225,1.225,0,1,1-2.449,0V342.65l-4.9.875v2.716a1.225,1.225,0,1,1-2.449,0v-2.279L2.617,345.973a3.175,3.175,0,0,0,0,6.251l7.18,1.282v-1.958a1.225,1.225,0,1,1,2.449,0v2.158a1.227,1.227,0,0,1-.023.234l4.921.879v-2.862a1.225,1.225,0,0,1,2.449,0v3.061a1.227,1.227,0,0,1-.023.234l1.887.337a28.939,28.939,0,0,0,3.035.376v-3.192a1.225,1.225,0,0,1,2.449,0v3.248s0,0,0,.005a6.939,6.939,0,0,0-.408-13.866Z" transform="translate(0 -314.226)" fill="#fff"/>
    <path id="Path_11502" data-name="Path 11502" d="M425.515,359.187l2.868-.278a3.379,3.379,0,1,0-1.725-6.438l-2.384,1.084a9.33,9.33,0,0,1,1.284,4.734Q425.558,358.743,425.515,359.187Z" transform="translate(-389.637 -323.416)" fill="#fff"/>
    <path id="Path_11503" data-name="Path 11503" d="M428.627,453.353l-3.705.359a9.358,9.358,0,0,1-.639,1.318l2.383,1.084a3.372,3.372,0,0,0,4.7-3.762A5.819,5.819,0,0,1,428.627,453.353Z" transform="translate(-389.645 -415.423)" fill="#fff"/>
  </g>
</svg>
