<svg id="apply" xmlns="http://www.w3.org/2000/svg" width="22.175" height="19.502" viewBox="0 0 22.175 19.502">
  <g id="Group_42116" data-name="Group 42116">
    <g id="Group_42115" data-name="Group 42115">
      <path id="Path_11328" data-name="Path 11328" d="M19.478,39.906a.593.593,0,0,0-1.182.085c.015.2.022.408.022.615A8.566,8.566,0,1,1,9.751,32.04a8.487,8.487,0,0,1,5.138,1.712A.592.592,0,0,0,15.6,32.8a9.663,9.663,0,0,0-5.849-1.95A9.751,9.751,0,1,0,19.5,40.606C19.5,40.372,19.494,40.136,19.478,39.906Z" transform="translate(0 -30.855)" fill="#fff"/>
    </g>
  </g>
  <g id="Group_42118" data-name="Group 42118" transform="translate(2.722 0.663)">
    <g id="Group_42117" data-name="Group 42117" transform="translate(0 0)">
      <path id="Path_11329" data-name="Path 11329" d="M81.634,46.841a2.314,2.314,0,0,0-3.269,0l-8.537,8.537L66.8,52.351a2.311,2.311,0,0,0-3.269,3.269l5.212,5.212a1.533,1.533,0,0,0,2.166,0L81.634,50.109A2.314,2.314,0,0,0,81.634,46.841ZM80.8,49.272,70.073,59.994a.347.347,0,0,1-.49,0l-5.212-5.212a1.126,1.126,0,0,1,1.593-1.593L69.077,56.3a1.062,1.062,0,0,0,1.5,0L79.2,47.679A1.126,1.126,0,0,1,80.8,49.272Z" transform="translate(-62.857 -46.165)" fill="#fff"/>
    </g>
  </g>
</svg>
