<svg id="cart" xmlns="http://www.w3.org/2000/svg" width="19.936" height="24.907" viewBox="0 0 19.936 24.907">
  <g id="Group_42050" data-name="Group 42050">
    <path id="Path_11327" data-name="Path 11327" d="M68.731,21.53,67.3,5.47a.686.686,0,0,0-.683-.626H63.688a4.921,4.921,0,0,0-9.841,0H50.914a.683.683,0,0,0-.683.626L48.805,21.53c0,.02-.005.041-.005.061a3.549,3.549,0,0,0,3.739,3.316H65a3.549,3.549,0,0,0,3.739-3.316A.248.248,0,0,0,68.731,21.53ZM58.768,1.375a3.549,3.549,0,0,1,3.545,3.469h-7.09A3.549,3.549,0,0,1,58.768,1.375ZM65,23.532H52.539a2.194,2.194,0,0,1-2.363-1.91l1.365-15.4h2.3V8.313a.688.688,0,1,0,1.375,0V6.224h7.1V8.313a.688.688,0,1,0,1.375,0V6.224h2.3l1.37,15.4A2.2,2.2,0,0,1,65,23.532Z" transform="translate(-48.8 0)" fill="#fff"/>
  </g>
</svg>
