<svg xmlns="http://www.w3.org/2000/svg" width="24" height="24" viewBox="0 0 24 24">
  <g id="checkbox" fill="#fff">
    <path d="M 18 23.5 L 6 23.5 C 2.967289924621582 23.5 0.5 21.0327091217041 0.5 18 L 0.5 6 C 0.5 2.967289924621582 2.967289924621582 0.5 6 0.5 L 18 0.5 C 21.0327091217041 0.5 23.5 2.967289924621582 23.5 6 L 23.5 18 C 23.5 21.0327091217041 21.0327091217041 23.5 18 23.5 Z" stroke="none"/>
    <path d="M 6 1 C 3.242990493774414 1 1 3.242990493774414 1 6 L 1 18 C 1 20.75700950622559 3.242990493774414 23 6 23 L 18 23 C 20.75700950622559 23 23 20.75700950622559 23 18 L 23 6 C 23 3.242990493774414 20.75700950622559 1 18 1 L 6 1 M 6 0 L 18 0 C 21.3137092590332 0 24 2.686290740966797 24 6 L 24 18 C 24 21.3137092590332 21.3137092590332 24 18 24 L 6 24 C 2.686290740966797 24 0 21.3137092590332 0 18 L 0 6 C 0 2.686290740966797 2.686290740966797 0 6 0 Z" stroke="none" fill="#f2eacb"/>
  </g>
</svg>
