<svg xmlns="http://www.w3.org/2000/svg" width="19.957" height="19.812" viewBox="0 0 19.957 19.812">
  <g id="company" transform="translate(0.2 0.202)">
    <g id="XMLID_1_">
      <path id="Path_11368" data-name="Path 11368" d="M13.907,9.09l7.179,1.426a1.2,1.2,0,0,1,.97,1.19v8.312a1.221,1.221,0,0,1-1.222,1.222H13.5a.4.4,0,0,0,.407-.407v-.407h6.926a.409.409,0,0,0,.407-.407V11.706a.409.409,0,0,0-.318-.4L13.907,9.921Z" transform="translate(-2.499 -1.83)" fill="#00963f" stroke="#00963f" stroke-width="0.4"/>
      <path id="Path_11369" data-name="Path 11369" d="M19.037,14a.407.407,0,0,1,0,.815h-1.63a.407.407,0,1,1,0-.815Z" transform="translate(-3.147 -2.739)" fill="#00963f" stroke="#00963f" stroke-width="0.4"/>
      <path id="Path_11370" data-name="Path 11370" d="M19.037,17a.407.407,0,0,1,0,.815h-1.63a.407.407,0,1,1,0-.815Z" transform="translate(-3.147 -3.294)" fill="#00963f" stroke="#00963f" stroke-width="0.4"/>
      <path id="Path_11371" data-name="Path 11371" d="M19.037,20a.407.407,0,0,1,0,.815h-1.63a.407.407,0,0,1,0-.815Z" transform="translate(-3.147 -3.85)" fill="#00963f" stroke="#00963f" stroke-width="0.4"/>
      <path id="Path_11372" data-name="Path 11372" d="M13.815,20.816a.407.407,0,0,1-.815,0V9.407a.433.433,0,0,1,.147-.318.428.428,0,0,1,.342-.081l.326.065V20.816Z" transform="translate(-2.407 -1.813)" fill="#00963f" stroke="#00963f" stroke-width="0.4"/>
      <path id="Path_11373" data-name="Path 11373" d="M12.352,23v.407a.4.4,0,0,0,.407.407H9.5a.4.4,0,0,0,.407-.407V23Z" transform="translate(-1.759 -4.405)" fill="#00963f" stroke="#00963f" stroke-width="0.4"/>
      <path id="Path_11374" data-name="Path 11374" d="M10.037,5a.407.407,0,1,1,0,.815H8.407a.407.407,0,0,1,0-.815Z" transform="translate(-1.481 -1.073)" fill="#00963f" stroke="#00963f" stroke-width="0.4"/>
      <path id="Path_11375" data-name="Path 11375" d="M10.445,8.407a.4.4,0,0,1-.407.407H8.407a.407.407,0,0,1,0-.815h1.63A.4.4,0,0,1,10.445,8.407Z" transform="translate(-1.481 -1.628)" fill="#00963f" stroke="#00963f" stroke-width="0.4"/>
      <path id="Path_11376" data-name="Path 11376" d="M10.037,11a.407.407,0,1,1,0,.815H8.407a.407.407,0,0,1,0-.815Z" transform="translate(-1.481 -2.184)" fill="#00963f" stroke="#00963f" stroke-width="0.4"/>
      <path id="Path_11377" data-name="Path 11377" d="M10.037,14a.407.407,0,1,1,0,.815H8.407a.407.407,0,0,1,0-.815Z" transform="translate(-1.481 -2.739)" fill="#00963f" stroke="#00963f" stroke-width="0.4"/>
      <path id="Path_11378" data-name="Path 11378" d="M5.445,14.407a.4.4,0,0,1-.407.407H3.407a.407.407,0,0,1,0-.815h1.63A.4.4,0,0,1,5.445,14.407Z" transform="translate(-0.555 -2.739)" fill="#00963f" stroke="#00963f" stroke-width="0.4"/>
      <path id="Path_11379" data-name="Path 11379" d="M5.037,5a.407.407,0,0,1,0,.815H3.407a.407.407,0,1,1,0-.815Z" transform="translate(-0.555 -1.073)" fill="#00963f" stroke="#00963f" stroke-width="0.4"/>
      <path id="Path_11380" data-name="Path 11380" d="M5.037,8a.407.407,0,0,1,0,.815H3.407a.407.407,0,1,1,0-.815Z" transform="translate(-0.555 -1.628)" fill="#00963f" stroke="#00963f" stroke-width="0.4"/>
      <path id="Path_11381" data-name="Path 11381" d="M5.037,11a.407.407,0,0,1,0,.815H3.407a.407.407,0,1,1,0-.815Z" transform="translate(-0.555 -2.184)" fill="#00963f" stroke="#00963f" stroke-width="0.4"/>
      <path id="Path_11382" data-name="Path 11382" d="M8.074,18.222a.409.409,0,0,0-.407-.407H5.222a.4.4,0,0,0-.407.407v3.667H4V18.222A1.221,1.221,0,0,1,5.222,17H7.667a1.221,1.221,0,0,1,1.222,1.222v3.667H8.074Z" transform="translate(-0.741 -3.294)" fill="#00963f" stroke="#00963f" stroke-width="0.4"/>
      <path id="Path_11383" data-name="Path 11383" d="M4.815,23H8.889v.407a.4.4,0,0,1-.407.407H4.407A.4.4,0,0,1,4,23.407V23Z" transform="translate(-0.741 -4.405)" fill="#00963f" stroke="#00963f" stroke-width="0.4"/>
      <path id="Path_11384" data-name="Path 11384" d="M1.426.2l8.955,1.361a1.218,1.218,0,0,1,1.027,1.206V7.441l-.326-.065a.428.428,0,0,0-.342.081.433.433,0,0,0-.147.318V2.763a.412.412,0,0,0-.342-.407L1.3,1A.226.226,0,0,0,1.222.995a.384.384,0,0,0-.261.1.39.39,0,0,0-.147.31V18.368a.409.409,0,0,0,.407.407H3.259v.407a.4.4,0,0,0,.407.407H1.222A1.221,1.221,0,0,1,0,18.368V1.4A1.2,1.2,0,0,1,.432.473,1.223,1.223,0,0,1,1.426.2Z" transform="translate(0 -0.181)" fill="#00963f" stroke="#00963f" stroke-width="0.4"/>
    </g>
  </g>
</svg>
