<svg xmlns="http://www.w3.org/2000/svg" width="44.535" height="26.355" viewBox="0 0 44.535 26.355">
  <g id="delivery" transform="translate(0.001 0)">
    <path id="Path_31855" data-name="Path 31855" d="M31.748.262c3.861.9,5.338,3.154,7.19,6.261h-7.19ZM9.183,6.785A1.145,1.145,0,0,1,10.488,8a1.3,1.3,0,0,1-1.3,1.3H1.3a1.3,1.3,0,1,0,0,2.609H13.047a1.3,1.3,0,1,1,.005,2.609H1.3a1.3,1.3,0,0,0,0,2.609h2.87V21.05a1.3,1.3,0,0,0,1.3,1.3H8.1a5,5,0,0,0,9.8,0H31.152a5,5,0,0,0,9.8,0h2.275a1.3,1.3,0,0,0,1.3-1.3V13.221c0-3.828-4.038-4.082-4.042-4.088H30.443a1.3,1.3,0,0,1-1.3-1.3V0H5.479a1.3,1.3,0,0,0-1.3,1.3v2.87H2.609a1.3,1.3,0,0,0,0,2.609ZM37.745,19.663a2.392,2.392,0,1,1-4.083,1.691A2.393,2.393,0,0,1,37.745,19.663Zm-23.05,0a2.392,2.392,0,1,1-4.083,1.691A2.393,2.393,0,0,1,14.695,19.663Zm0,0" fill="#fff" fill-rule="evenodd"/>
  </g>
</svg>
