<svg id="fast" xmlns="http://www.w3.org/2000/svg" width="14.32" height="10.501" viewBox="0 0 14.32 10.501">
  <g id="Group_8290" data-name="Group 8290" transform="translate(0 0)">
    <g id="Group_8289" data-name="Group 8289">
      <path id="Path_4171" data-name="Path 4171" d="M208.122,68.944l4.3-4.773a.478.478,0,0,1,.355-.158h2.864a.477.477,0,0,1,.355.8l-4.008,4.454,4.008,4.453a.478.478,0,0,1-.355.8h-2.864a.484.484,0,0,1-.355-.158l-4.3-4.773A.478.478,0,0,1,208.122,68.944Z" transform="translate(-208 -64.013)" fill="#232323"/>
    </g>
  </g>
  <g id="Group_8292" data-name="Group 8292" transform="translate(6.205 0)">
    <g id="Group_8291" data-name="Group 8291">
      <path id="Path_4172" data-name="Path 4172" d="M.122,68.944l4.3-4.773a.478.478,0,0,1,.355-.158H7.637a.477.477,0,0,1,.355.8L3.984,69.263l4.008,4.453a.478.478,0,0,1-.355.8H4.773a.484.484,0,0,1-.355-.158l-4.3-4.773A.478.478,0,0,1,.122,68.944Z" transform="translate(0 -64.013)" fill="#232323"/>
    </g>
  </g>
</svg>
