<svg xmlns="http://www.w3.org/2000/svg" width="37" height="37.625" viewBox="0 0 37 37.625">
  <path id="Icon_ionic-ios-add-circle" data-name="Icon ionic-ios-add-circle" d="M21.875,3.375a18.655,18.655,0,0,0-18.5,18.813A18.655,18.655,0,0,0,21.875,41a18.655,18.655,0,0,0,18.5-18.812A18.655,18.655,0,0,0,21.875,3.375Zm8.049,20.26H23.3v6.738a1.439,1.439,0,0,1-1.423,1.447,1.407,1.407,0,0,1-1.005-.425,1.455,1.455,0,0,1-.418-1.022V23.635H13.826a1.407,1.407,0,0,1-1.005-.425,1.455,1.455,0,0,1-.418-1.022,1.439,1.439,0,0,1,1.423-1.447h6.626V14A1.423,1.423,0,1,1,23.3,14V20.74h6.626a1.447,1.447,0,0,1,0,2.894Z" transform="translate(-3.375 -3.375)" fill="#00963f"/>
</svg>
