<svg xmlns="http://www.w3.org/2000/svg" width="16.971" height="16.972" viewBox="0 0 16.971 16.972">
  <path id="Icon_material-copyright" data-name="Icon material-copyright" d="M9.856,10.518a2.17,2.17,0,0,1,.255-.738,1.484,1.484,0,0,1,.5-.526,1.506,1.506,0,0,1,.772-.2,1.538,1.538,0,0,1,.535.11,1.368,1.368,0,0,1,.441.305,1.634,1.634,0,0,1,.289.45,1.486,1.486,0,0,1,.119.543h1.519a3.037,3.037,0,0,0-.238-1.095,2.547,2.547,0,0,0-.594-.857,2.772,2.772,0,0,0-.916-.56,3.278,3.278,0,0,0-1.18-.2,3.316,3.316,0,0,0-1.443.289A2.918,2.918,0,0,0,8.9,8.83a3.19,3.19,0,0,0-.6,1.154,4.97,4.97,0,0,0-.2,1.392V11.6A4.968,4.968,0,0,0,8.287,13a3.085,3.085,0,0,0,.6,1.146,2.9,2.9,0,0,0,1.018.772,3.443,3.443,0,0,0,1.443.289,3.237,3.237,0,0,0,1.12-.2,2.894,2.894,0,0,0,.916-.535,2.59,2.59,0,0,0,.628-.8,2.284,2.284,0,0,0,.255-.976H12.75a1.208,1.208,0,0,1-.127.492,1.249,1.249,0,0,1-.305.39,1.337,1.337,0,0,1-.441.255,1.685,1.685,0,0,1-.509.085,1.441,1.441,0,0,1-.755-.2,1.484,1.484,0,0,1-.5-.526,2.217,2.217,0,0,1-.255-.747,5.719,5.719,0,0,1-.068-.849v-.229a5.654,5.654,0,0,1,.068-.857ZM11.486,3a8.486,8.486,0,1,0,8.486,8.486A8.489,8.489,0,0,0,11.486,3Zm0,15.274a6.789,6.789,0,1,1,6.789-6.789A6.8,6.8,0,0,1,11.486,18.274Z" transform="translate(-3 -3)" fill="#fff"/>
</svg>
