<svg id="note" xmlns="http://www.w3.org/2000/svg" width="20.332" height="22.687" viewBox="0 0 20.332 22.687">
  <g id="Group_42138" data-name="Group 42138" transform="translate(0)">
    <g id="Group_42137" data-name="Group 42137">
      <g id="Group_42136" data-name="Group 42136">
        <path id="Path_11333" data-name="Path 11333" d="M117.359,200.886a.886.886,0,0,0-.886-.886h-9.128a.886.886,0,1,0,0,1.772h9.128A.886.886,0,0,0,117.359,200.886Z" transform="translate(-102.919 -191.138)" fill="#f2eacb"/>
        <path id="Path_11334" data-name="Path 11334" d="M107.345,280a.886.886,0,1,0,0,1.772h5.544a.886.886,0,1,0,0-1.772Z" transform="translate(-102.919 -267.593)" fill="#f2eacb"/>
        <path id="Path_11335" data-name="Path 11335" d="M33.079,20.914H30.115a1.774,1.774,0,0,1-1.772-1.772V3.545a1.774,1.774,0,0,1,1.772-1.772h10.9a1.774,1.774,0,0,1,1.772,1.772v5.45a.886.886,0,0,0,1.772,0V3.545A3.549,3.549,0,0,0,41.01,0h-10.9A3.549,3.549,0,0,0,26.57,3.545v15.6a3.549,3.549,0,0,0,3.545,3.545h2.964a.886.886,0,1,0,0-1.772Z" transform="translate(-26.57)" fill="#f2eacb"/>
        <path id="Path_11336" data-name="Path 11336" d="M253.4,272.8a2.661,2.661,0,0,0-3.759,0l-4.865,4.855a.886.886,0,0,0-.222.37l-1.06,3.488a.886.886,0,0,0,1.085,1.112l3.577-.991a.885.885,0,0,0,.389-.227l4.855-4.846A2.662,2.662,0,0,0,253.4,272.8Zm-5.942,7.187-1.8.5.527-1.734,3.283-3.276,1.254,1.254Zm4.69-4.681-.172.171-1.253-1.253.171-.171a.886.886,0,0,1,1.254,1.253Z" transform="translate(-233.847 -259.971)" fill="#f2eacb"/>
        <path id="Path_11337" data-name="Path 11337" d="M116.473,120h-9.128a.886.886,0,1,0,0,1.772h9.128a.886.886,0,0,0,0-1.772Z" transform="translate(-102.919 -114.683)" fill="#f2eacb"/>
      </g>
    </g>
  </g>
</svg>
