<svg xmlns="http://www.w3.org/2000/svg" width="23.121" height="16.022" viewBox="0 0 23.121 16.022">
  <g id="on_its_way" data-name="on its way" transform="translate(0 -85.333)">
    <path id="Path_31902" data-name="Path 31902" d="M339.935,203.968l.558-4.857h-1.468L337,207.6l7.2-.411.59-2.2Z" transform="translate(-321.782 -108.64)" fill="#f9c810"/>
    <path id="Path_31903" data-name="Path 31903" d="M331.831,329.143h-1.468l-.787,2.936h6.606a1.027,1.027,0,0,0,.931-.734h-5.138a.544.544,0,0,1-.537-.734Z" transform="translate(-314.693 -232.8)" fill="#00963f"/>
    <path id="Path_31904" data-name="Path 31904" d="M385.276,204.035l-1.241-.887-1.413-.92,1.4-1.649,0-.927a.529.529,0,0,0-.563-.541h-2.375l-1.573,5.872h5.872l.085-.318A.565.565,0,0,0,385.276,204.035Z" transform="translate(-362.368 -108.64)" fill="#f9c810"/>
    <path id="Path_31905" data-name="Path 31905" d="M119.941,182.857h3.178a.272.272,0,0,1,.269.367l-2.262,8.441-10.59.621c-.2,0-.28-.1-.226-.3l2.025-7.609Z" transform="translate(-105.312 -93.12)" fill="#00963f"/>
    <path id="Path_31906" data-name="Path 31906" d="M105.122,191.666a.272.272,0,0,1-.269-.367l.536-2a.363.363,0,0,1,.482-.248,5.8,5.8,0,0,0,2.154.414,5.837,5.837,0,0,0,5.821-6.606h-7.1a.513.513,0,0,0-.465.367l-2.36,8.808a.272.272,0,0,0,.269.367h10.643l.2-.734h-9.909Z" transform="translate(-99.218 -93.121)" fill="#00963f"/>
    <ellipse id="Ellipse_1314" data-name="Ellipse 1314" cx="1.678" cy="1.284" rx="1.678" ry="1.284" transform="matrix(0.753, -0.659, 0.659, 0.753, 17.561, 99.415)" fill="#5d5360"/>
    <ellipse id="Ellipse_1315" data-name="Ellipse 1315" cx="0.839" cy="0.642" rx="0.839" ry="0.642" transform="matrix(0.753, -0.659, 0.659, 0.753, 18.616, 99.345)" fill="#fff"/>
    <ellipse id="Ellipse_1316" data-name="Ellipse 1316" cx="1.678" cy="1.284" rx="1.678" ry="1.284" transform="matrix(0.753, -0.659, 0.659, 0.753, 6.18, 99.42)" fill="#5d5360"/>
    <ellipse id="Ellipse_1317" data-name="Ellipse 1317" cx="0.839" cy="0.642" rx="0.839" ry="0.642" transform="matrix(0.753, -0.659, 0.659, 0.753, 7.235, 99.351)" fill="#fff"/>
    <path id="Path_31907" data-name="Path 31907" d="M426.268,231.619H424.4l-.65.734.254,1.6,2.277-.5Z" transform="translate(-404.614 -139.68)" fill="#dbeaff"/>
    <path id="Path_31908" data-name="Path 31908" d="M411.919,233.454a.544.544,0,0,1-.537-.734l.3-1.1a1.027,1.027,0,0,0-.931.734l-.3,1.1a.544.544,0,0,0,.537.734h2.569l0-.734Z" transform="translate(-391.891 -139.68)" fill="#c3ddff"/>
    <path id="Path_31955" data-name="Path 31955" d="M5.138,0A5.138,5.138,0,1,1,0,5.138,5.138,5.138,0,0,1,5.138,0Z" transform="translate(3.67 85.333)" fill="#f9c810"/>
    <circle id="Ellipse_1319" data-name="Ellipse 1319" cx="4.404" cy="4.404" r="4.404" transform="translate(4.404 86.067)" fill="#fff"/>
    <g id="Group_42860" data-name="Group 42860" transform="translate(4.771 86.434)">
      <path id="Path_31909" data-name="Path 31909" d="M187.288,110.815a.367.367,0,0,1-.367-.367v-.367a.367.367,0,1,1,.734,0v.367A.367.367,0,0,1,187.288,110.815Z" transform="translate(-183.251 -109.714)" fill="#c8c5c9"/>
      <path id="Path_31910" data-name="Path 31910" d="M187.288,265.228a.367.367,0,0,1-.367-.367v-.367a.367.367,0,1,1,.734,0v.367A.367.367,0,0,1,187.288,265.228Z" transform="translate(-183.251 -257.154)" fill="#c8c5c9"/>
      <path id="Path_31911" data-name="Path 31911" d="M260.8,191.718h-.367a.367.367,0,0,1,0-.734h.367a.367.367,0,1,1,0,.734Z" transform="translate(-253.09 -187.314)" fill="#c8c5c9"/>
      <path id="Path_31912" data-name="Path 31912" d="M106.385,191.718h-.367a.367.367,0,1,1,0-.734h.367a.367.367,0,1,1,0,.734Z" transform="translate(-105.651 -187.314)" fill="#c8c5c9"/>
    </g>
    <path id="Path_31913" data-name="Path 31913" d="M4.037,297.369H.367a.367.367,0,1,1,0-.734h3.67a.367.367,0,1,1,0,.734Z" transform="translate(0 -201.76)" fill="#f9c810"/>
    <path id="Path_31914" data-name="Path 31914" d="M26.95,329.877h-2.2a.367.367,0,0,1,0-.734h2.2a.367.367,0,0,1,0,.734Z" transform="translate(-23.28 -232.8)" fill="#f9c810"/>
    <path id="Path_31915" data-name="Path 31915" d="M49.863,362.385h-.734a.367.367,0,1,1,0-.734h.734a.367.367,0,1,1,0,.734Z" transform="translate(-46.56 -263.84)" fill="#f9c810"/>
    <path id="Path_31916" data-name="Path 31916" d="M162.907,142.379a.367.367,0,0,1-.259-.626l3.486-3.486a.367.367,0,0,1,.519.519l-3.486,3.486A.366.366,0,0,1,162.907,142.379Z" transform="translate(-155.2 -50.44)" fill="#f9c810"/>
    <circle id="Ellipse_1320" data-name="Ellipse 1320" cx="0.734" cy="0.734" r="0.734" transform="translate(8.074 89.737)" fill="#5d5360"/>
  </g>
</svg>
