<svg xmlns="http://www.w3.org/2000/svg" width="20.713" height="25.262" viewBox="0 0 20.713 25.262">
  <g id="orders" transform="translate(0.25 0.25)">
    <g id="Group_42167" data-name="Group 42167" transform="translate(2.481 3.722)">
      <g id="Group_42166" data-name="Group 42166">
        <path id="Path_11352" data-name="Path 11352" d="M101.207,78.2a.388.388,0,0,0-.388.388.853.853,0,1,1-.853-.853.388.388,0,0,0,0-.775,1.628,1.628,0,1,0,1.628,1.628A.388.388,0,0,0,101.207,78.2Z" transform="translate(-98.338 -76.96)" fill="#00963f" stroke="#00963f" stroke-width="0.5"/>
      </g>
    </g>
    <g id="Group_42169" data-name="Group 42169" transform="translate(2.481 8.271)">
      <g id="Group_42168" data-name="Group 42168">
        <path id="Path_11353" data-name="Path 11353" d="M101.207,172.263a.388.388,0,0,0-.388.388.853.853,0,1,1-.853-.853.388.388,0,1,0,0-.775,1.628,1.628,0,1,0,1.628,1.628A.388.388,0,0,0,101.207,172.263Z" transform="translate(-98.338 -171.022)" fill="#00963f" stroke="#00963f" stroke-width="0.5"/>
      </g>
    </g>
    <g id="Group_42171" data-name="Group 42171" transform="translate(6.617 10.339)">
      <g id="Group_42170" data-name="Group 42170" transform="translate(0)">
        <path id="Path_11354" data-name="Path 11354" d="M187.132,213.779h-2.895a.388.388,0,1,0,0,.775h2.895a.388.388,0,0,0,0-.775Z" transform="translate(-183.849 -213.779)" fill="#00963f" stroke="#00963f" stroke-width="0.5"/>
      </g>
    </g>
    <g id="Group_42173" data-name="Group 42173" transform="translate(6.617 8.685)">
      <g id="Group_42172" data-name="Group 42172" transform="translate(0)">
        <path id="Path_11355" data-name="Path 11355" d="M187.132,179.574h-2.895a.388.388,0,1,0,0,.775h2.895a.388.388,0,1,0,0-.775Z" transform="translate(-183.849 -179.574)" fill="#00963f" stroke="#00963f" stroke-width="0.5"/>
      </g>
    </g>
    <g id="Group_42175" data-name="Group 42175" transform="translate(6.617 14.888)">
      <g id="Group_42174" data-name="Group 42174" transform="translate(0)">
        <path id="Path_11356" data-name="Path 11356" d="M186.3,307.841h-2.068a.388.388,0,1,0,0,.775H186.3a.388.388,0,0,0,0-.775Z" transform="translate(-183.849 -307.841)" fill="#00963f" stroke="#00963f" stroke-width="0.5"/>
      </g>
    </g>
    <g id="Group_42177" data-name="Group 42177" transform="translate(6.617 13.234)">
      <g id="Group_42176" data-name="Group 42176" transform="translate(0)">
        <path id="Path_11357" data-name="Path 11357" d="M187.132,273.637h-2.895a.388.388,0,1,0,0,.775h2.895a.388.388,0,0,0,0-.775Z" transform="translate(-183.849 -273.637)" fill="#00963f" stroke="#00963f" stroke-width="0.5"/>
      </g>
    </g>
    <g id="Group_42179" data-name="Group 42179" transform="translate(6.617 5.79)">
      <g id="Group_42178" data-name="Group 42178" transform="translate(0)">
        <path id="Path_11358" data-name="Path 11358" d="M190.854,119.716h-6.617a.388.388,0,1,0,0,.775h6.617a.388.388,0,0,0,0-.775Z" transform="translate(-183.849 -119.716)" fill="#00963f" stroke="#00963f" stroke-width="0.5"/>
      </g>
    </g>
    <g id="Group_42181" data-name="Group 42181" transform="translate(6.617 4.136)">
      <g id="Group_42180" data-name="Group 42180" transform="translate(0)">
        <path id="Path_11359" data-name="Path 11359" d="M189.2,85.511h-4.963a.388.388,0,1,0,0,.775H189.2a.388.388,0,0,0,0-.775Z" transform="translate(-183.849 -85.511)" fill="#00963f" stroke="#00963f" stroke-width="0.5"/>
      </g>
    </g>
    <g id="Group_42183" data-name="Group 42183" transform="translate(2.481 12.82)">
      <g id="Group_42182" data-name="Group 42182">
        <path id="Path_11360" data-name="Path 11360" d="M101.207,266.326a.388.388,0,0,0-.388.388.853.853,0,1,1-.853-.853.388.388,0,1,0,0-.775,1.628,1.628,0,1,0,1.628,1.628A.388.388,0,0,0,101.207,266.326Z" transform="translate(-98.338 -265.085)" fill="#00963f" stroke="#00963f" stroke-width="0.5"/>
      </g>
    </g>
    <g id="Group_42185" data-name="Group 42185">
      <g id="Group_42184" data-name="Group 42184">
        <path id="Path_11361" data-name="Path 11361" d="M62.307,0H48.246a1.216,1.216,0,0,0-1.215,1.215v17.37A1.216,1.216,0,0,0,48.246,19.8h7.031a.388.388,0,0,0,0-.775H48.246a.44.44,0,0,1-.439-.439V1.215a.44.44,0,0,1,.439-.439H62.307a.44.44,0,0,1,.439.439V14.035a.388.388,0,0,0,.775,0V1.215A1.216,1.216,0,0,0,62.307,0Z" transform="translate(-47.031)" fill="#00963f" stroke="#00963f" stroke-width="0.5"/>
      </g>
    </g>
    <g id="Group_42187" data-name="Group 42187" transform="translate(9.306 8.685)">
      <g id="Group_42186" data-name="Group 42186">
        <path id="Path_11362" data-name="Path 11362" d="M249.082,186.616a1.431,1.431,0,0,0-1.006.283,1.412,1.412,0,0,0-1.062-.7,1.431,1.431,0,0,0-1.006.283,1.412,1.412,0,0,0-1.062-.7,1.433,1.433,0,0,0-.791.148V181a1.422,1.422,0,0,0-1.567-1.414,1.467,1.467,0,0,0-1.276,1.473v4.95l-1.14,1.14a2.44,2.44,0,0,0-.654,2.3l.865,3.677a3.27,3.27,0,0,0,3.2,2.531h3.5a3.286,3.286,0,0,0,3.283-3.283v-4.283A1.467,1.467,0,0,0,249.082,186.616Zm.5,5.757a2.51,2.51,0,0,1-2.507,2.507h-3.5a2.5,2.5,0,0,1-2.441-1.933l-.865-3.677a1.67,1.67,0,0,1,.447-1.573l.591-.591v1.339a.388.388,0,1,0,.775,0v-7.385a.686.686,0,0,1,.578-.7.646.646,0,0,1,.714.643v6.824a.388.388,0,0,0,.775,0v-.62a.646.646,0,0,1,.714-.643.686.686,0,0,1,.578.7v.975a.388.388,0,0,0,.775,0v-.62a.646.646,0,0,1,.714-.643.686.686,0,0,1,.578.7v.975a.388.388,0,1,0,.775,0v-.62a.646.646,0,0,1,.714-.643.686.686,0,0,1,.578.7v4.284Z" transform="translate(-239.451 -179.578)" fill="#00963f" stroke="#00963f" stroke-width="0.5"/>
      </g>
    </g>
  </g>
</svg>
