<svg xmlns="http://www.w3.org/2000/svg" width="20.138" height="16.118" viewBox="0 0 20.138 16.118">
  <g id="prepared" transform="matrix(0.998, -0.07, 0.07, 0.998, 11.58, -7.793)">
    <path id="Path_31917" data-name="Path 31917" d="M278.922,100.913h-2.6l1.042-2.865h1.563Z" transform="translate(-276.937 -87.547)" fill="#d6bdef"/>
    <path id="Path_31918" data-name="Path 31918" d="M449.676,37.242a.265.265,0,0,1-.249-.354l.8-2.242a.265.265,0,1,1,.5.179l-.8,2.242A.265.265,0,0,1,449.676,37.242Z" transform="translate(-444.483 -26.006)" fill="#95d6a4"/>
    <path id="Path_31919" data-name="Path 31919" d="M440.352,59.152a.265.265,0,0,1-.264-.255l-.051-1.424a.264.264,0,0,1,.255-.274.261.261,0,0,1,.274.255l.051,1.424a.265.265,0,0,1-.255.274Z" transform="translate(-435.409 -48.005)" fill="#95d6a4"/>
    <path id="Path_31920" data-name="Path 31920" d="M457.451,75.53a.265.265,0,0,1-.2-.44l.945-1.067a.265.265,0,0,1,.4.351l-.945,1.067A.264.264,0,0,1,457.451,75.53Z" transform="translate(-452.009 -64.205)" fill="#b3e59f"/>
    <path id="Path_31921" data-name="Path 31921" d="M400.722,106.323a1.059,1.059,0,0,0-1.354.639l-.622,1.711H401l.357-1A1.059,1.059,0,0,0,400.722,106.323Z" transform="translate(-395.442 -95.496)" fill="#ffa95f"/>
    <path id="Path_31922" data-name="Path 31922" d="M371.16,42.857l-.219-.219a.529.529,0,0,1-.155-.374v-.839a.265.265,0,0,0-.265-.265h-.265l-.123.155v4.345h1.182V43.231A.529.529,0,0,0,371.16,42.857Z" transform="translate(-367.746 -32.481)" fill="#dbeaff"/>
    <path id="Path_31923" data-name="Path 31923" d="M342,74.191h-.529v.045a.53.53,0,0,1-.155.374l-.219.219a.529.529,0,0,0-.155.374v.839L342,77.632V74.191Z" transform="translate(-339.488 -64.454)" fill="#c3ddff"/>
    <path id="Path_31924" data-name="Path 31924" d="M357.985,42.218h-.529v-.794a.265.265,0,0,1,.265-.265h.265a.265.265,0,0,1,.265.265Z" transform="translate(-355.475 -32.481)" fill="#b6b1b7"/>
    <path id="Path_31925" data-name="Path 31925" d="M340.94,132h.529a.529.529,0,0,1,.529.529v1.059H340.94Z" transform="translate(-339.489 -120.408)" fill="#b6b1b7"/>
    <path id="Path_31926" data-name="Path 31926" d="M374.237,41.159h-.265v1.059h.529v-.794A.265.265,0,0,0,374.237,41.159Z" transform="translate(-371.462 -32.481)" fill="#c8c5c9"/>
    <path id="Path_31927" data-name="Path 31927" d="M456.887,136.63a.265.265,0,1,0-.179.5l.5.179h0l.089-.249a1.049,1.049,0,0,0,.058-.261Z" transform="translate(-451.377 -124.877)" fill="#ff8b5a"/>
    <path id="Path_31928" data-name="Path 31928" d="M412.517,128.649l.5.179a.265.265,0,1,0,.179-.5l-.5-.179h0l-.181.5Z" transform="translate(-408.77 -116.685)" fill="#ff8b5a"/>
    <path id="Path_31929" data-name="Path 31929" d="M276.317,98.048h1.042v2.865h-1.042Z" transform="translate(-276.937 -87.547)" fill="#c3aff0"/>
    <path id="Path_31930" data-name="Path 31930" d="M161.827,37.046a8.444,8.444,0,0,1-.14,1.274,3.4,3.4,0,0,0-.544,2.093l.467,1.777,2.117,1.059-1.306-6.164Z" transform="translate(-165.413 -28.5)" fill="#fff"/>
    <path id="Path_31931" data-name="Path 31931" d="M161.311,37.059l-.261-.138-.214.234.023.29a1.05,1.05,0,0,1-.061.446,4.721,4.721,0,0,0-.292,2.4l1.525,1.777Z" transform="translate(-164.776 -28.379)" fill="#fff"/>
    <path id="Path_31932" data-name="Path 31932" d="M171.84,7.959a.444.444,0,0,0-.6-.324.452.452,0,0,0-.271.46l.054.68.948-.192Z" transform="translate(-174.96 0)" fill="#c38c66"/>
    <path id="Path_31933" data-name="Path 31933" d="M126.794,72.669l-.749-.206.94,3.744h1.486Z" transform="translate(-131.481 -62.782)" fill="#fff"/>
    <path id="Path_31934" data-name="Path 31934" d="M122.316,83.046l-.168.28.092.276a1.05,1.05,0,0,1,.048.447,4.721,4.721,0,0,0,.293,2.4h1.371l-1.364-3.333Z" transform="translate(-127.709 -73.025)" fill="#fff"/>
    <path id="Path_31935" data-name="Path 31935" d="M115.481,53.2a.444.444,0,0,0-.664-.169.452.452,0,0,0-.153.512l.216.648.874-.414Z" transform="translate(-120.441 -43.894)" fill="#c38c66"/>
    <path id="Path_31936" data-name="Path 31936" d="M211.382,123.216h-1.126a.265.265,0,0,0-.265.265v1.588h2.647v-.529Z" transform="translate(-212.737 -111.908)" fill="#43c57a"/>
    <path id="Path_31937" data-name="Path 31937" d="M228.624,127.682h-1.588a.529.529,0,0,1-.529-.529v-.529l.348-.161h1.453l.316.161Z" transform="translate(-228.723 -115.051)" fill="#f9c810"/>
    <path id="Path_31938" data-name="Path 31938" d="M218.514,65.409h1.853a.265.265,0,0,1,.265.265v1.853h-2.117l-.265-1.853A.265.265,0,0,1,218.514,65.409Z" transform="translate(-220.73 -55.954)" fill="#43c57a"/>
    <path id="Path_31939" data-name="Path 31939" d="M210.256,65.409a.265.265,0,0,0-.265.265v1.853h.529V65.409Z" transform="translate(-212.737 -55.954)" fill="#00963f"/>
    <path id="Path_31940" data-name="Path 31940" d="M235.559,90.712h-.529a.265.265,0,1,1,0-.529h.529a.265.265,0,0,1,0,.529Z" transform="translate(-236.717 -79.934)" fill="#f9c810"/>
    <path id="Path_31941" data-name="Path 31941" d="M34.946,108.711l-.64-1.675a1.31,1.31,0,0,0-1.216-.837h-.581v.521h.581a.786.786,0,0,1,.73.5l.64,1.675a.261.261,0,0,0,.243.167.267.267,0,0,0,.093-.017A.261.261,0,0,0,34.946,108.711Z" transform="translate(-40.942 -95.436)" fill="#fff"/>
    <path id="Path_31942" data-name="Path 31942" d="M133.364,356.846H122.553l1.377-3.344a1.183,1.183,0,0,1-.483-.2l-1.524,3.7a.261.261,0,0,0,.241.36h11.2a.26.26,0,0,0,0-.521Z" transform="translate(-127.472 -334.624)" fill="#fff"/>
    <circle id="Ellipse_1321" data-name="Ellipse 1321" cx="1.042" cy="1.042" r="1.042" transform="translate(-6.35 21.441)" fill="#5d5360"/>
    <circle id="Ellipse_1322" data-name="Ellipse 1322" cx="0.521" cy="0.521" r="0.521" transform="translate(-5.829 21.962)" fill="#c8c5c9"/>
    <path id="Path_31943" data-name="Path 31943" d="M110.04,179.343H97.069l-.069.326,1.731,4.9a1.644,1.644,0,0,0,2.012,1.043l8.436-1.177s.959-.369.96-.383c.009-.214.162-.4.162-.63V179.6A.26.26,0,0,0,110.04,179.343Z" transform="translate(-103.367 -166.236)" fill="#00963f"/>
    <circle id="Ellipse_1323" data-name="Ellipse 1323" cx="1.042" cy="1.042" r="1.042" transform="translate(4.85 21.441)" fill="#5d5360"/>
    <circle id="Ellipse_1324" data-name="Ellipse 1324" cx="0.521" cy="0.521" r="0.521" transform="translate(5.371 21.962)" fill="#c8c5c9"/>
    <path id="Path_31944" data-name="Path 31944" d="M1.042,106.7H.26a.26.26,0,0,1,0-.521h.781a.26.26,0,0,1,0,.521Z" transform="translate(-9.476 -95.413)" fill="#5d5360"/>
    <path id="Path_31945" data-name="Path 31945" d="M98.931,184.049l-9.467,1.321a1.562,1.562,0,0,1-1.676-.99l-1.926-5.037h-.179a.26.26,0,0,0-.243.353l1.862,4.87a2.084,2.084,0,0,0,2.234,1.32l8.436-1.177A1.306,1.306,0,0,0,98.931,184.049Z" transform="translate(-92.16 -166.236)" fill="#006d2e"/>
    <path id="Path_31946" data-name="Path 31946" d="M156.764,208.7a.26.26,0,0,1-.32-.182l-1.227-4.472a.26.26,0,1,1,.5-.138l1.227,4.472A.26.26,0,0,1,156.764,208.7Z" transform="translate(-159.709 -189.833)" fill="#f9c810"/>
    <path id="Path_31947" data-name="Path 31947" d="M225.837,208.5a.248.248,0,0,1-.043,0,.26.26,0,0,1-.257-.218l-.708-4.265a.26.26,0,0,1,.514-.085l.708,4.265A.26.26,0,0,1,225.837,208.5Z" transform="translate(-227.095 -189.827)" fill="#f9c810"/>
    <path id="Path_31948" data-name="Path 31948" d="M294.962,208.267h-.015a.26.26,0,0,1-.26-.246l-.232-4.02a.26.26,0,1,1,.52-.03l.232,4.02A.26.26,0,0,1,294.962,208.267Z" transform="translate(-294.494 -189.839)" fill="#f9c810"/>
    <path id="Path_31949" data-name="Path 31949" d="M354.045,207.753a.26.26,0,0,1-.521,0v-3.77a.26.26,0,1,1,.521,0Z" transform="translate(-351.669 -189.835)" fill="#f9c810"/>
    <path id="Path_31950" data-name="Path 31950" d="M405.854,207.535a.26.26,0,0,1-.521,0v-3.552a.26.26,0,1,1,.521,0Z" transform="translate(-401.818 -189.835)" fill="#f9c810"/>
    <path id="Path_31951" data-name="Path 31951" d="M455.632,207.224a.26.26,0,1,1-.521,0V203.96a.26.26,0,1,1,.521,0Z" transform="translate(-450.001 -189.812)" fill="#f9c810"/>
    <path id="Path_31952" data-name="Path 31952" d="M4.012.729H.365A.365.365,0,1,1,.365,0H4.012a.365.365,0,1,1,0,.729Z" transform="translate(-12.449 12.022) rotate(-1)" fill="#fff"/>
    <path id="Path_31953" data-name="Path 31953" d="M2.553.729H.365A.365.365,0,1,1,.365,0H2.553a.365.365,0,1,1,0,.729Z" transform="translate(-11.33 13.462) rotate(-1)" fill="#fff"/>
    <path id="Path_31954" data-name="Path 31954" d="M1.094.729H.365A.365.365,0,1,1,.365,0h.729a.365.365,0,0,1,0,.729Z" transform="translate(-10.21 14.902) rotate(-1)" fill="#fff"/>
  </g>
</svg>
