<svg xmlns="http://www.w3.org/2000/svg" width="43.282" height="45.24" viewBox="0 0 43.282 45.24">
  <g id="price" transform="translate(-3.386 -2.87)">
    <path id="Path_31850" data-name="Path 31850" d="M23.728,14.273,11.361,35.683A3.891,3.891,0,0,0,12.786,41l11.8,6.818a5.4,5.4,0,0,1-.389-2.016V21.075a8.561,8.561,0,0,1,2.4-5.946L31.557,10l-3.7,1.043A7,7,0,0,0,23.728,14.273Z" transform="translate(-1.653 -1.581)" fill="#fff"/>
    <path id="Path_31851" data-name="Path 31851" d="M4.525,28.469a3.891,3.891,0,0,0,0,5.5l3.113,3.113a5.448,5.448,0,0,1,.724-2.062C10.176,31.909,18.192,18,22.542,10.53,22.021,10.935,22.97,10.04,4.525,28.469Z" transform="translate(0 -1.699)" fill="#fff"/>
    <path id="Path_31852" data-name="Path 31852" d="M43.267,38.113h.226V35h-.226a1.557,1.557,0,0,0,0,3.113Z" transform="translate(-8.498 -7.124)" fill="#fff"/>
    <path id="Path_31853" data-name="Path 31853" d="M46.343,2.87a10.608,10.608,0,0,1-2.288,4.981,3.891,3.891,0,0,0-5.58,0l-6.514,6.794A7,7,0,0,0,30,19.494V44.219a3.891,3.891,0,0,0,3.891,3.891H48.678a3.891,3.891,0,0,0,3.891-3.891V19.494a7,7,0,0,0-1.961-4.849l-4.366-4.529a10.117,10.117,0,0,1-3.494,2.467,1.565,1.565,0,1,1-.319-1.564,8.063,8.063,0,0,0,1.362-.778h0a10.942,10.942,0,0,0,1.37-1.222h0A11.845,11.845,0,0,0,47.9,3.065ZM40.67,26.319H40.9V24.428h1.557v1.891h.226a3.113,3.113,0,0,1,3.113,3.113H44.234a1.557,1.557,0,0,0-1.557-1.557h-.226v3.113h.226a3.113,3.113,0,0,1,0,6.226h-.226v1.891H40.9V37.215H40.67A3.113,3.113,0,0,1,37.557,34.1h1.557a1.557,1.557,0,0,0,1.557,1.557H40.9V32.545H40.67a3.113,3.113,0,1,1,0-6.226Z" transform="translate(-5.901)" fill="#fff"/>
    <path id="Path_31854" data-name="Path 31854" d="M47.782,42.557A1.557,1.557,0,0,0,46.226,41H46v3.113h.226A1.557,1.557,0,0,0,47.782,42.557Z" transform="translate(-9.449 -8.455)" fill="#fff"/>
  </g>
</svg>
