<svg id="waiting" xmlns="http://www.w3.org/2000/svg" width="9.346" height="16.022" viewBox="0 0 9.346 16.022">
  <g id="Group_42309" data-name="Group 42309">
    <path id="Path_11417" data-name="Path 11417" d="M115.012,0h-7.343a1,1,0,0,0,0,2h7.343a1,1,0,1,0,0-2Z" transform="translate(-106.667)" fill="#f9c810"/>
    <path id="Path_11418" data-name="Path 11418" d="M135.677,56.018h-7.343a.334.334,0,0,1-.334-.334V52.891a3,3,0,0,1,1.026-2.261l1.184-1.036a.334.334,0,0,0,.031-.471.339.339,0,0,0-.031-.031l-1.184-1.036A3,3,0,0,1,128,45.795V43a.334.334,0,0,1,.334-.334h7.343a.334.334,0,0,1,.334.334v2.794a3,3,0,0,1-1.026,2.261L133.8,49.092a.334.334,0,0,0-.031.471.339.339,0,0,0,.031.031l1.184,1.036a3,3,0,0,1,1.026,2.261v2.794A.334.334,0,0,1,135.677,56.018Z" transform="translate(-127.332 -41.332)" fill="#f9c810"/>
  </g>
  <path id="Path_11419" data-name="Path 11419" d="M149.333,76.016h6.676v-2.46a2.337,2.337,0,0,0-.8-1.758l-1.184-1.036a1,1,0,0,1,0-1.507l1.184-1.036a2.337,2.337,0,0,0,.8-1.758V64h-6.676v2.46a2.337,2.337,0,0,0,.8,1.758l1.184,1.036a1,1,0,0,1,0,1.507L150.134,71.8a2.337,2.337,0,0,0-.8,1.758Z" transform="translate(-147.998 -61.997)" fill="#fff"/>
  <path id="Path_11420" data-name="Path 11420" d="M195.962,170.873a.334.334,0,0,0-.308-.206h-3.338a.334.334,0,0,0-.236.57l1.669,1.669a.334.334,0,0,0,.472,0l1.669-1.669A.334.334,0,0,0,195.962,170.873Z" transform="translate(-189.311 -165.326)" fill="#00963f"/>
  <path id="Path_11421" data-name="Path 11421" d="M115.012,448h-7.343a1,1,0,0,0,0,2h7.343a1,1,0,1,0,0-2Z" transform="translate(-106.667 -433.981)" fill="#f9c810"/>
  <path id="Path_11422" data-name="Path 11422" d="M152.9,330.767a.334.334,0,0,0-.46.011l-3.1,3.1v.472h6.676V333.6Z" transform="translate(-147.998 -320.333)" fill="#00963f"/>
</svg>
